<mxfile host="app.diagrams.net" modified="2023-05-22T15:14:48.990Z" agent="Mozilla/5.0 (Windows NT 10.0; Win64; x64) AppleWebKit/537.36 (KHTML, like Gecko) Chrome/113.0.0.0 Safari/537.36" etag="4EZr28EWWIqybKaZZ9gK" version="21.3.2" type="device">
  <diagram name="Pagina-1" id="w800GUGEdYkLCCH2qPsL">
    <mxGraphModel dx="1500" dy="773" grid="1" gridSize="10" guides="1" tooltips="1" connect="1" arrows="1" fold="1" page="1" pageScale="1" pageWidth="827" pageHeight="1169" math="0" shadow="0">
      <root>
        <mxCell id="0" />
        <mxCell id="1" parent="0" />
        <mxCell id="9bhCN26Gut4c0zC6BwJP-162" value="" style="edgeStyle=orthogonalEdgeStyle;rounded=0;orthogonalLoop=1;jettySize=auto;html=1;" edge="1" parent="1" source="9bhCN26Gut4c0zC6BwJP-110" target="9bhCN26Gut4c0zC6BwJP-161">
          <mxGeometry relative="1" as="geometry" />
        </mxCell>
        <mxCell id="9bhCN26Gut4c0zC6BwJP-110" value="segreteria" style="html=1;overflow=block;blockSpacing=1;whiteSpace=wrap;fontSize=16.7;fontColor=#333333;spacing=9;strokeColor=#5e5e5e;strokeOpacity=100;rounded=1;absoluteArcSize=1;arcSize=9;strokeWidth=2.3;lucidId=B4OZR11qyAOo;" vertex="1" parent="1">
          <mxGeometry x="490" y="185" width="120" height="90" as="geometry" />
        </mxCell>
        <mxCell id="9bhCN26Gut4c0zC6BwJP-169" style="edgeStyle=orthogonalEdgeStyle;rounded=0;orthogonalLoop=1;jettySize=auto;html=1;exitX=1;exitY=0.5;exitDx=0;exitDy=0;" edge="1" parent="1" source="9bhCN26Gut4c0zC6BwJP-111" target="9bhCN26Gut4c0zC6BwJP-166">
          <mxGeometry relative="1" as="geometry" />
        </mxCell>
        <mxCell id="9bhCN26Gut4c0zC6BwJP-111" value="docente" style="html=1;overflow=block;blockSpacing=1;whiteSpace=wrap;fontSize=16.7;fontColor=#333333;spacing=9;strokeColor=#5e5e5e;strokeOpacity=100;rounded=1;absoluteArcSize=1;arcSize=9;strokeWidth=2.3;lucidId=B4OZd3HfxgaX;" vertex="1" parent="1">
          <mxGeometry x="660" y="185" width="120" height="90" as="geometry" />
        </mxCell>
        <mxCell id="9bhCN26Gut4c0zC6BwJP-171" style="edgeStyle=orthogonalEdgeStyle;rounded=0;orthogonalLoop=1;jettySize=auto;html=1;exitX=0.5;exitY=0;exitDx=0;exitDy=0;entryX=0.523;entryY=1.02;entryDx=0;entryDy=0;entryPerimeter=0;" edge="1" parent="1" source="9bhCN26Gut4c0zC6BwJP-112" target="9bhCN26Gut4c0zC6BwJP-170">
          <mxGeometry relative="1" as="geometry" />
        </mxCell>
        <mxCell id="9bhCN26Gut4c0zC6BwJP-112" value="Studente" style="html=1;overflow=block;blockSpacing=1;whiteSpace=wrap;fontSize=16.7;fontColor=#333333;spacing=9;strokeColor=#5e5e5e;strokeOpacity=100;rounded=1;absoluteArcSize=1;arcSize=9;strokeWidth=2.3;lucidId=B4OZTsSM7oOb;" vertex="1" parent="1">
          <mxGeometry x="1035" y="230" width="120" height="90" as="geometry" />
        </mxCell>
        <mxCell id="9bhCN26Gut4c0zC6BwJP-176" style="edgeStyle=orthogonalEdgeStyle;rounded=0;orthogonalLoop=1;jettySize=auto;html=1;exitX=1;exitY=0;exitDx=0;exitDy=0;" edge="1" parent="1" source="9bhCN26Gut4c0zC6BwJP-113">
          <mxGeometry relative="1" as="geometry">
            <mxPoint x="779.7368421052633" y="420" as="targetPoint" />
          </mxGeometry>
        </mxCell>
        <mxCell id="9bhCN26Gut4c0zC6BwJP-113" value="Insegnameto " style="html=1;overflow=block;blockSpacing=1;whiteSpace=wrap;fontSize=16.7;fontColor=#333333;spacing=9;strokeColor=#5e5e5e;strokeOpacity=100;rounded=1;absoluteArcSize=1;arcSize=9;strokeWidth=2.3;lucidId=B4OZQgIaofx8;" vertex="1" parent="1">
          <mxGeometry x="660" y="455" width="120" height="90" as="geometry" />
        </mxCell>
        <mxCell id="9bhCN26Gut4c0zC6BwJP-114" value="" style="html=1;jettySize=18;whiteSpace=wrap;fontSize=13;strokeColor=#5E5E5E;strokeWidth=1.5;rounded=1;arcSize=12;edgeStyle=orthogonalEdgeStyle;startArrow=none;endArrow=block;endFill=1;exitX=0.5;exitY=1.012;exitPerimeter=0;entryX=0.5;entryY=-0.012;entryPerimeter=0;lucidId=B4OZ.L3g1Uec;" edge="1" parent="1" source="9bhCN26Gut4c0zC6BwJP-113" target="9bhCN26Gut4c0zC6BwJP-117">
          <mxGeometry width="100" height="100" relative="1" as="geometry">
            <Array as="points" />
          </mxGeometry>
        </mxCell>
        <mxCell id="9bhCN26Gut4c0zC6BwJP-115" value="N" style="text;html=1;resizable=0;labelBackgroundColor=default;align=center;verticalAlign=middle;fontStyle=1;fontColor=#333333;fontSize=13.3;" vertex="1" parent="9bhCN26Gut4c0zC6BwJP-114">
          <mxGeometry x="-0.4803458486034051" relative="1" as="geometry" />
        </mxCell>
        <mxCell id="9bhCN26Gut4c0zC6BwJP-116" value="1" style="text;html=1;resizable=0;labelBackgroundColor=default;align=center;verticalAlign=middle;fontStyle=1;fontColor=#333333;fontSize=13.3;" vertex="1" parent="9bhCN26Gut4c0zC6BwJP-114">
          <mxGeometry x="0.6176357074128689" relative="1" as="geometry" />
        </mxCell>
        <mxCell id="9bhCN26Gut4c0zC6BwJP-180" style="edgeStyle=orthogonalEdgeStyle;rounded=0;orthogonalLoop=1;jettySize=auto;html=1;exitX=1;exitY=0;exitDx=0;exitDy=0;" edge="1" parent="1" source="9bhCN26Gut4c0zC6BwJP-117">
          <mxGeometry relative="1" as="geometry">
            <mxPoint x="820" y="750" as="targetPoint" />
          </mxGeometry>
        </mxCell>
        <mxCell id="9bhCN26Gut4c0zC6BwJP-117" value="Corso di laurea" style="html=1;overflow=block;blockSpacing=1;whiteSpace=wrap;fontSize=16.7;fontColor=#333333;spacing=9;strokeColor=#5e5e5e;strokeOpacity=100;rounded=1;absoluteArcSize=1;arcSize=9;strokeWidth=2.3;lucidId=B4OZn7ztnUw~;" vertex="1" parent="1">
          <mxGeometry x="660" y="800" width="120" height="90" as="geometry" />
        </mxCell>
        <mxCell id="9bhCN26Gut4c0zC6BwJP-118" value="" style="html=1;jettySize=18;whiteSpace=wrap;fontSize=13;strokeColor=#5E5E5E;strokeWidth=1.5;rounded=1;arcSize=12;edgeStyle=orthogonalEdgeStyle;startArrow=none;endArrow=block;endFill=1;exitX=0.5;exitY=1.012;exitPerimeter=0;entryX=0.5;entryY=0.004;entryPerimeter=0;lucidId=B4OZARVTIOwt;" edge="1" parent="1" source="9bhCN26Gut4c0zC6BwJP-112" target="9bhCN26Gut4c0zC6BwJP-138">
          <mxGeometry width="100" height="100" relative="1" as="geometry">
            <Array as="points" />
          </mxGeometry>
        </mxCell>
        <mxCell id="9bhCN26Gut4c0zC6BwJP-119" value="N" style="text;html=1;resizable=0;labelBackgroundColor=default;align=center;verticalAlign=middle;fontStyle=1;fontColor=#333333;fontSize=13.3;" vertex="1" parent="9bhCN26Gut4c0zC6BwJP-118">
          <mxGeometry x="-0.9238675288059734" relative="1" as="geometry" />
        </mxCell>
        <mxCell id="9bhCN26Gut4c0zC6BwJP-120" value="" style="html=1;jettySize=18;whiteSpace=wrap;fontSize=13;strokeColor=#5E5E5E;strokeWidth=1.5;rounded=1;arcSize=12;edgeStyle=orthogonalEdgeStyle;startArrow=none;endArrow=block;endFill=1;exitX=0.5;exitY=0.996;exitPerimeter=0;lucidId=oHYZn_mRPhZ1;entryX=1;entryY=0.25;entryDx=0;entryDy=0;" edge="1" parent="1" source="9bhCN26Gut4c0zC6BwJP-138" target="9bhCN26Gut4c0zC6BwJP-117">
          <mxGeometry width="100" height="100" relative="1" as="geometry">
            <Array as="points" />
            <mxPoint x="830" y="740" as="targetPoint" />
          </mxGeometry>
        </mxCell>
        <mxCell id="9bhCN26Gut4c0zC6BwJP-121" value="1" style="text;html=1;resizable=0;labelBackgroundColor=default;align=center;verticalAlign=middle;fontStyle=1;fontColor=#333333;fontSize=13.3;" vertex="1" parent="9bhCN26Gut4c0zC6BwJP-120">
          <mxGeometry x="0.6908660423681132" relative="1" as="geometry" />
        </mxCell>
        <mxCell id="9bhCN26Gut4c0zC6BwJP-178" style="edgeStyle=orthogonalEdgeStyle;rounded=0;orthogonalLoop=1;jettySize=auto;html=1;exitX=0.5;exitY=1;exitDx=0;exitDy=0;" edge="1" parent="1" source="9bhCN26Gut4c0zC6BwJP-122">
          <mxGeometry relative="1" as="geometry">
            <mxPoint x="939.7368421052633" y="640" as="targetPoint" />
          </mxGeometry>
        </mxCell>
        <mxCell id="9bhCN26Gut4c0zC6BwJP-122" value="appello" style="html=1;overflow=block;blockSpacing=1;whiteSpace=wrap;fontSize=16.7;fontColor=#333333;spacing=9;strokeColor=#5e5e5e;strokeOpacity=100;rounded=1;absoluteArcSize=1;arcSize=9;strokeWidth=2.3;lucidId=B4OZx7JARb07;" vertex="1" parent="1">
          <mxGeometry x="880" y="500" width="120" height="90" as="geometry" />
        </mxCell>
        <mxCell id="9bhCN26Gut4c0zC6BwJP-123" value="" style="html=1;jettySize=18;whiteSpace=wrap;fontSize=13;strokeColor=#5E5E5E;strokeWidth=1.5;rounded=1;arcSize=12;edgeStyle=orthogonalEdgeStyle;startArrow=none;endArrow=block;endFill=1;exitX=1.009;exitY=0.5;exitPerimeter=0;entryX=-0.009;entryY=0.5;entryPerimeter=0;lucidId=B4OZUzYcx_Ot;" edge="1" parent="1" source="9bhCN26Gut4c0zC6BwJP-113" target="9bhCN26Gut4c0zC6BwJP-122">
          <mxGeometry width="100" height="100" relative="1" as="geometry">
            <Array as="points" />
          </mxGeometry>
        </mxCell>
        <mxCell id="9bhCN26Gut4c0zC6BwJP-124" value="1" style="text;html=1;resizable=0;labelBackgroundColor=default;align=center;verticalAlign=middle;fontStyle=1;fontColor=#333333;fontSize=13.3;" vertex="1" parent="9bhCN26Gut4c0zC6BwJP-123">
          <mxGeometry x="-0.705467346987944" relative="1" as="geometry" />
        </mxCell>
        <mxCell id="9bhCN26Gut4c0zC6BwJP-125" value="N" style="text;html=1;resizable=0;labelBackgroundColor=default;align=center;verticalAlign=middle;fontStyle=1;fontColor=#333333;fontSize=13.3;" vertex="1" parent="9bhCN26Gut4c0zC6BwJP-123">
          <mxGeometry x="0.5495514010767644" relative="1" as="geometry" />
        </mxCell>
        <mxCell id="9bhCN26Gut4c0zC6BwJP-126" value="" style="html=1;jettySize=18;whiteSpace=wrap;fontSize=13;strokeColor=#5E5E5E;strokeWidth=1.5;rounded=1;arcSize=12;edgeStyle=orthogonalEdgeStyle;startArrow=none;endArrow=block;endFill=1;exitX=0.5;exitY=0;entryX=-0.009;entryY=0.5;entryPerimeter=0;lucidId=B4OZ~z.QaxXQ;exitDx=0;exitDy=0;" edge="1" parent="1" source="9bhCN26Gut4c0zC6BwJP-160" target="9bhCN26Gut4c0zC6BwJP-112">
          <mxGeometry width="100" height="100" relative="1" as="geometry">
            <Array as="points">
              <mxPoint x="1000" y="275" />
            </Array>
          </mxGeometry>
        </mxCell>
        <mxCell id="9bhCN26Gut4c0zC6BwJP-127" value="N" style="text;html=1;resizable=0;labelBackgroundColor=default;align=center;verticalAlign=middle;fontStyle=1;fontColor=#333333;fontSize=13.3;" vertex="1" parent="9bhCN26Gut4c0zC6BwJP-126">
          <mxGeometry x="0.6145591155391641" relative="1" as="geometry" />
        </mxCell>
        <mxCell id="9bhCN26Gut4c0zC6BwJP-128" value="responsabile" style="html=1;overflow=block;blockSpacing=1;whiteSpace=wrap;rhombus;fontSize=16.7;fontColor=#333333;spacing=3.8;strokeColor=#5e5e5e;strokeOpacity=100;rounded=1;absoluteArcSize=1;arcSize=9;strokeWidth=2.3;lucidId=R4OZEybF4Rif;" vertex="1" parent="1">
          <mxGeometry x="687" y="330" width="75" height="60" as="geometry" />
        </mxCell>
        <mxCell id="9bhCN26Gut4c0zC6BwJP-129" value="" style="html=1;jettySize=18;whiteSpace=wrap;fontSize=13;strokeColor=#5E5E5E;strokeWidth=1.5;rounded=1;arcSize=12;edgeStyle=orthogonalEdgeStyle;startArrow=none;endArrow=block;endFill=1;exitX=0.578;exitY=1.012;exitPerimeter=0;entryX=0.525;entryY=0.012;entryPerimeter=0;lucidId=94OZlLDKnTJo;" edge="1" parent="1" source="9bhCN26Gut4c0zC6BwJP-111" target="9bhCN26Gut4c0zC6BwJP-128">
          <mxGeometry width="100" height="100" relative="1" as="geometry">
            <Array as="points" />
          </mxGeometry>
        </mxCell>
        <mxCell id="9bhCN26Gut4c0zC6BwJP-130" value="1" style="text;html=1;resizable=0;labelBackgroundColor=default;align=center;verticalAlign=middle;fontStyle=1;fontColor=#333333;fontSize=13.3;" vertex="1" parent="9bhCN26Gut4c0zC6BwJP-129">
          <mxGeometry relative="1" as="geometry" />
        </mxCell>
        <mxCell id="9bhCN26Gut4c0zC6BwJP-131" value="" style="html=1;jettySize=18;whiteSpace=wrap;fontSize=13;strokeColor=#5E5E5E;strokeWidth=1.5;rounded=1;arcSize=12;edgeStyle=orthogonalEdgeStyle;startArrow=none;endArrow=block;endFill=1;exitX=0.5;exitY=0.992;exitPerimeter=0;entryX=0.563;entryY=-0.012;entryPerimeter=0;lucidId=_4OZeDb4.g6T;" edge="1" parent="1" source="9bhCN26Gut4c0zC6BwJP-128" target="9bhCN26Gut4c0zC6BwJP-113">
          <mxGeometry width="100" height="100" relative="1" as="geometry">
            <Array as="points" />
          </mxGeometry>
        </mxCell>
        <mxCell id="9bhCN26Gut4c0zC6BwJP-132" value="3" style="text;html=1;resizable=0;labelBackgroundColor=default;align=center;verticalAlign=middle;fontStyle=1;fontColor=#333333;fontSize=13.3;" vertex="1" parent="9bhCN26Gut4c0zC6BwJP-131">
          <mxGeometry relative="1" as="geometry" />
        </mxCell>
        <mxCell id="9bhCN26Gut4c0zC6BwJP-133" value="Propedeuticità" style="html=1;overflow=block;blockSpacing=1;whiteSpace=wrap;rhombus;fontSize=16.7;fontColor=#333333;spacing=3.8;strokeColor=#5e5e5e;strokeOpacity=100;rounded=1;absoluteArcSize=1;arcSize=9;strokeWidth=2.3;lucidId=iEYZwo-T4-ZH;" vertex="1" parent="1">
          <mxGeometry x="510" y="473.5" width="60" height="53" as="geometry" />
        </mxCell>
        <mxCell id="9bhCN26Gut4c0zC6BwJP-134" value="" style="html=1;jettySize=18;whiteSpace=wrap;fontSize=13;strokeColor=#5E5E5E;strokeWidth=1.5;rounded=1;arcSize=12;edgeStyle=orthogonalEdgeStyle;startArrow=none;endArrow=block;endFill=1;exitX=-0.009;exitY=0.054;exitPerimeter=0;entryX=0.5;entryY=0.011;entryPerimeter=0;lucidId=FEYZbTeTJsp9;" edge="1" parent="1" source="9bhCN26Gut4c0zC6BwJP-113" target="9bhCN26Gut4c0zC6BwJP-133">
          <mxGeometry width="100" height="100" relative="1" as="geometry">
            <Array as="points" />
          </mxGeometry>
        </mxCell>
        <mxCell id="9bhCN26Gut4c0zC6BwJP-135" value="N" style="text;html=1;resizable=0;labelBackgroundColor=default;align=center;verticalAlign=middle;fontStyle=1;fontColor=#333333;fontSize=13.3;" vertex="1" parent="9bhCN26Gut4c0zC6BwJP-134">
          <mxGeometry x="-0.395646462814069" relative="1" as="geometry" />
        </mxCell>
        <mxCell id="9bhCN26Gut4c0zC6BwJP-136" value="" style="html=1;jettySize=18;whiteSpace=wrap;fontSize=13.3;fontColor=#333333;fontStyle=1;strokeColor=#5E5E5E;strokeWidth=1.5;rounded=1;arcSize=12;edgeStyle=orthogonalEdgeStyle;startArrow=none;endArrow=block;endFill=1;exitX=0.5;exitY=0.989;exitPerimeter=0;entryX=-0.009;entryY=0.946;entryPerimeter=0;lucidId=LEYZEK._amQ8;" edge="1" parent="1" source="9bhCN26Gut4c0zC6BwJP-133" target="9bhCN26Gut4c0zC6BwJP-113">
          <mxGeometry width="100" height="100" relative="1" as="geometry">
            <Array as="points" />
          </mxGeometry>
        </mxCell>
        <mxCell id="9bhCN26Gut4c0zC6BwJP-137" value="N" style="text;html=1;resizable=0;labelBackgroundColor=default;align=center;verticalAlign=middle;fontStyle=1;fontColor=#333333;fontSize=13.3;" vertex="1" parent="9bhCN26Gut4c0zC6BwJP-136">
          <mxGeometry relative="1" as="geometry" />
        </mxCell>
        <mxCell id="9bhCN26Gut4c0zC6BwJP-138" value="Frequenta" style="html=1;overflow=block;blockSpacing=1;whiteSpace=wrap;rhombus;fontSize=16.7;fontColor=#333333;spacing=3.8;strokeColor=#5e5e5e;strokeOpacity=100;rounded=1;absoluteArcSize=1;arcSize=9;strokeWidth=2.3;lucidId=oHYZX1_Z4XjT;" vertex="1" parent="1">
          <mxGeometry x="1035" y="560" width="120" height="90" as="geometry" />
        </mxCell>
        <mxCell id="9bhCN26Gut4c0zC6BwJP-143" value="appartiene" style="html=1;overflow=block;blockSpacing=1;whiteSpace=wrap;rhombus;fontSize=16.7;fontColor=#333333;spacing=3.8;strokeColor=#5e5e5e;strokeOpacity=100;rounded=1;absoluteArcSize=1;arcSize=9;strokeWidth=2.3;lucidId=c~YZCZ.ngGNq;" vertex="1" parent="1">
          <mxGeometry x="679" y="650" width="83" height="60" as="geometry" />
        </mxCell>
        <mxCell id="9bhCN26Gut4c0zC6BwJP-173" style="edgeStyle=orthogonalEdgeStyle;rounded=0;orthogonalLoop=1;jettySize=auto;html=1;exitX=0.5;exitY=0;exitDx=0;exitDy=0;" edge="1" parent="1" source="9bhCN26Gut4c0zC6BwJP-144" target="9bhCN26Gut4c0zC6BwJP-172">
          <mxGeometry relative="1" as="geometry" />
        </mxCell>
        <mxCell id="9bhCN26Gut4c0zC6BwJP-144" value="Studente_Arc" style="html=1;overflow=block;blockSpacing=1;whiteSpace=wrap;fontSize=16.7;fontColor=#333333;spacing=9;strokeColor=#5e5e5e;strokeOpacity=100;rounded=1;absoluteArcSize=1;arcSize=9;strokeWidth=2.3;lucidId=5dZZgvOSPA.B;" vertex="1" parent="1">
          <mxGeometry x="1215" y="230" width="120" height="90" as="geometry" />
        </mxCell>
        <mxCell id="9bhCN26Gut4c0zC6BwJP-145" value="" style="html=1;jettySize=18;whiteSpace=wrap;fontSize=13;strokeColor=#5E5E5E;strokeWidth=1.5;rounded=1;arcSize=12;edgeStyle=orthogonalEdgeStyle;startArrow=none;endArrow=block;endFill=1;exitX=0.5;exitY=1.012;exitPerimeter=0;entryX=1.009;entryY=0.896;entryPerimeter=0;lucidId=xfZZUOoOEuDS;" edge="1" parent="1" source="9bhCN26Gut4c0zC6BwJP-144" target="9bhCN26Gut4c0zC6BwJP-117">
          <mxGeometry width="100" height="100" relative="1" as="geometry">
            <Array as="points">
              <mxPoint x="1270" y="321" />
              <mxPoint x="1270" y="881" />
            </Array>
          </mxGeometry>
        </mxCell>
        <mxCell id="9bhCN26Gut4c0zC6BwJP-146" value="1" style="text;html=1;resizable=0;labelBackgroundColor=default;align=center;verticalAlign=middle;fontStyle=1;fontColor=#333333;fontSize=13.3;" vertex="1" parent="9bhCN26Gut4c0zC6BwJP-145">
          <mxGeometry x="0.5065750507554552" relative="1" as="geometry" />
        </mxCell>
        <mxCell id="9bhCN26Gut4c0zC6BwJP-147" value="n" style="text;html=1;resizable=0;labelBackgroundColor=default;align=center;verticalAlign=middle;fontStyle=1;fontColor=#333333;fontSize=13.3;" vertex="1" parent="9bhCN26Gut4c0zC6BwJP-145">
          <mxGeometry x="-0.9394874783555837" relative="1" as="geometry" />
        </mxCell>
        <mxCell id="9bhCN26Gut4c0zC6BwJP-148" value="Ha Frequenta" style="html=1;overflow=block;blockSpacing=1;whiteSpace=wrap;rhombus;fontSize=16.7;fontColor=#333333;spacing=3.8;strokeColor=#5e5e5e;strokeOpacity=100;rounded=1;absoluteArcSize=1;arcSize=9;strokeWidth=2.3;lucidId=TfZZtY_4Y-ry;" vertex="1" parent="1">
          <mxGeometry x="1215" y="635" width="120" height="90" as="geometry" />
        </mxCell>
        <mxCell id="9bhCN26Gut4c0zC6BwJP-149" value="" style="html=1;jettySize=18;whiteSpace=wrap;fontSize=13;strokeColor=#5E5E5E;strokeWidth=1.5;rounded=1;arcSize=12;edgeStyle=orthogonalEdgeStyle;startArrow=none;endArrow=block;endFill=1;exitX=1.009;exitY=0.5;exitPerimeter=0;entryX=-0.009;entryY=0.5;entryPerimeter=0;lucidId=skZZ8j4ZDPYh;" edge="1" parent="1" source="9bhCN26Gut4c0zC6BwJP-144" target="9bhCN26Gut4c0zC6BwJP-152">
          <mxGeometry width="100" height="100" relative="1" as="geometry">
            <Array as="points" />
          </mxGeometry>
        </mxCell>
        <mxCell id="9bhCN26Gut4c0zC6BwJP-150" value="1" style="text;html=1;resizable=0;labelBackgroundColor=default;align=center;verticalAlign=middle;fontStyle=1;fontColor=#333333;fontSize=13.3;" vertex="1" parent="9bhCN26Gut4c0zC6BwJP-149">
          <mxGeometry x="-0.5213572322249823" relative="1" as="geometry" />
        </mxCell>
        <mxCell id="9bhCN26Gut4c0zC6BwJP-151" value="N" style="text;html=1;resizable=0;labelBackgroundColor=default;align=center;verticalAlign=middle;fontStyle=1;fontColor=#333333;fontSize=13.3;" vertex="1" parent="9bhCN26Gut4c0zC6BwJP-149">
          <mxGeometry x="0.7128525244668489" relative="1" as="geometry" />
        </mxCell>
        <mxCell id="9bhCN26Gut4c0zC6BwJP-182" style="edgeStyle=orthogonalEdgeStyle;rounded=0;orthogonalLoop=1;jettySize=auto;html=1;exitX=0.5;exitY=0;exitDx=0;exitDy=0;" edge="1" parent="1" source="9bhCN26Gut4c0zC6BwJP-152">
          <mxGeometry relative="1" as="geometry">
            <mxPoint x="1530.263157894737" y="190" as="targetPoint" />
          </mxGeometry>
        </mxCell>
        <mxCell id="9bhCN26Gut4c0zC6BwJP-152" value="Voti" style="html=1;overflow=block;blockSpacing=1;whiteSpace=wrap;fontSize=16.7;fontColor=#333333;spacing=9;strokeColor=#5e5e5e;strokeOpacity=100;rounded=1;absoluteArcSize=1;arcSize=9;strokeWidth=2.3;lucidId=IkZZc8FUXFHt;" vertex="1" parent="1">
          <mxGeometry x="1470" y="230" width="120" height="90" as="geometry" />
        </mxCell>
        <mxCell id="9bhCN26Gut4c0zC6BwJP-153" value="" style="html=1;jettySize=18;whiteSpace=wrap;fontSize=13;strokeColor=#5E5E5E;strokeWidth=1.5;rounded=1;arcSize=12;edgeStyle=orthogonalEdgeStyle;startArrow=none;endArrow=block;endFill=1;exitX=0.5;exitY=1.012;exitPerimeter=0;entryX=0.991;entryY=0.5;entryPerimeter=0;lucidId=Bbj04BpzYJIC;" edge="1" parent="1" source="9bhCN26Gut4c0zC6BwJP-152" target="9bhCN26Gut4c0zC6BwJP-155">
          <mxGeometry width="100" height="100" relative="1" as="geometry">
            <Array as="points">
              <mxPoint x="1550" y="321" />
              <mxPoint x="1550" y="920" />
            </Array>
          </mxGeometry>
        </mxCell>
        <mxCell id="9bhCN26Gut4c0zC6BwJP-154" value="N" style="text;html=1;resizable=0;labelBackgroundColor=default;align=center;verticalAlign=middle;fontStyle=1;fontColor=#333333;fontSize=13.3;" vertex="1" parent="9bhCN26Gut4c0zC6BwJP-153">
          <mxGeometry x="0.20013966299482333" relative="1" as="geometry" />
        </mxCell>
        <mxCell id="9bhCN26Gut4c0zC6BwJP-155" value="corso" style="html=1;overflow=block;blockSpacing=1;whiteSpace=wrap;rhombus;fontSize=16.7;fontColor=#333333;spacing=3.8;strokeColor=#5e5e5e;strokeOpacity=100;rounded=1;absoluteArcSize=1;arcSize=9;strokeWidth=2.3;lucidId=Cbj0WAT~JnRN;" vertex="1" parent="1">
          <mxGeometry x="480" y="875" width="120" height="90" as="geometry" />
        </mxCell>
        <mxCell id="9bhCN26Gut4c0zC6BwJP-156" value="" style="html=1;jettySize=18;whiteSpace=wrap;fontSize=13.3;fontColor=#333333;fontStyle=1;strokeColor=#5E5E5E;strokeWidth=1.5;rounded=1;arcSize=12;edgeStyle=orthogonalEdgeStyle;startArrow=none;endArrow=block;endFill=1;exitX=0.5;exitY=0.004;exitPerimeter=0;entryX=0.008;entryY=0.998;entryPerimeter=0;lucidId=Kbj07FkLkneO;" edge="1" parent="1" source="9bhCN26Gut4c0zC6BwJP-155" target="9bhCN26Gut4c0zC6BwJP-113">
          <mxGeometry width="100" height="100" relative="1" as="geometry">
            <Array as="points" />
          </mxGeometry>
        </mxCell>
        <mxCell id="9bhCN26Gut4c0zC6BwJP-157" value="N" style="text;html=1;resizable=0;labelBackgroundColor=default;align=center;verticalAlign=middle;fontStyle=1;fontColor=#333333;fontSize=13.3;" vertex="1" parent="9bhCN26Gut4c0zC6BwJP-156">
          <mxGeometry relative="1" as="geometry" />
        </mxCell>
        <mxCell id="9bhCN26Gut4c0zC6BwJP-158" value="" style="html=1;jettySize=18;whiteSpace=wrap;fontSize=13;strokeColor=#5E5E5E;strokeWidth=1.5;rounded=1;arcSize=12;edgeStyle=orthogonalEdgeStyle;startArrow=none;endArrow=block;endFill=1;exitX=0.725;exitY=-0.012;exitPerimeter=0;entryX=-0.009;entryY=0.5;entryPerimeter=0;lucidId=B4OZ~z.QaxXQ;" edge="1" parent="1" source="9bhCN26Gut4c0zC6BwJP-122" target="9bhCN26Gut4c0zC6BwJP-160">
          <mxGeometry width="100" height="100" relative="1" as="geometry">
            <Array as="points">
              <mxPoint x="967" y="470" />
              <mxPoint x="1000" y="470" />
              <mxPoint x="1000" y="395" />
            </Array>
            <mxPoint x="987" y="454" as="sourcePoint" />
            <mxPoint x="1034" y="275" as="targetPoint" />
          </mxGeometry>
        </mxCell>
        <mxCell id="9bhCN26Gut4c0zC6BwJP-159" value="N" style="text;html=1;resizable=0;labelBackgroundColor=default;align=center;verticalAlign=middle;fontStyle=1;fontColor=#333333;fontSize=13.3;" vertex="1" parent="9bhCN26Gut4c0zC6BwJP-158">
          <mxGeometry x="-0.7906401163130419" relative="1" as="geometry" />
        </mxCell>
        <mxCell id="9bhCN26Gut4c0zC6BwJP-174" style="edgeStyle=orthogonalEdgeStyle;rounded=0;orthogonalLoop=1;jettySize=auto;html=1;exitX=0;exitY=0.5;exitDx=0;exitDy=0;" edge="1" parent="1" source="9bhCN26Gut4c0zC6BwJP-160">
          <mxGeometry relative="1" as="geometry">
            <mxPoint x="910" y="395.2105263157895" as="targetPoint" />
          </mxGeometry>
        </mxCell>
        <mxCell id="9bhCN26Gut4c0zC6BwJP-160" value="sostiene" style="html=1;overflow=block;blockSpacing=1;whiteSpace=wrap;rhombus;fontSize=16.7;fontColor=#333333;spacing=3.8;strokeColor=#5e5e5e;strokeOpacity=100;rounded=1;absoluteArcSize=1;arcSize=9;strokeWidth=2.3;lucidId=sKYZkQtYEGgU;" vertex="1" parent="1">
          <mxGeometry x="940" y="350" width="120" height="90" as="geometry" />
        </mxCell>
        <mxCell id="9bhCN26Gut4c0zC6BwJP-161" value="" style="shape=waypoint;sketch=0;size=6;pointerEvents=1;points=[];fillColor=default;resizable=0;rotatable=0;perimeter=centerPerimeter;snapToPoint=1;fontSize=16.7;strokeColor=#5e5e5e;fontColor=#333333;spacing=9;rounded=1;arcSize=9;strokeWidth=2.3;" vertex="1" parent="1">
          <mxGeometry x="450" y="190" width="20" height="20" as="geometry" />
        </mxCell>
        <mxCell id="9bhCN26Gut4c0zC6BwJP-164" value="&lt;b&gt;email&lt;/b&gt;&lt;br&gt;password&lt;br&gt;" style="text;html=1;align=center;verticalAlign=middle;resizable=0;points=[];autosize=1;strokeColor=none;fillColor=none;" vertex="1" parent="1">
          <mxGeometry x="400" y="180" width="70" height="40" as="geometry" />
        </mxCell>
        <mxCell id="9bhCN26Gut4c0zC6BwJP-166" value="&lt;b&gt;email&lt;/b&gt;&lt;br&gt;password&lt;br&gt;nome&amp;nbsp;&lt;br&gt;cognome&amp;nbsp;" style="text;html=1;align=center;verticalAlign=middle;resizable=0;points=[];autosize=1;strokeColor=none;fillColor=none;" vertex="1" parent="1">
          <mxGeometry x="805" y="170" width="80" height="70" as="geometry" />
        </mxCell>
        <mxCell id="9bhCN26Gut4c0zC6BwJP-170" value="&lt;b&gt;matricola&lt;/b&gt;&lt;br&gt;email&lt;br&gt;password&lt;br&gt;nome&amp;nbsp;&lt;br&gt;cognome&amp;nbsp;" style="text;html=1;align=center;verticalAlign=middle;resizable=0;points=[];autosize=1;strokeColor=none;fillColor=none;" vertex="1" parent="1">
          <mxGeometry x="1050" y="110" width="80" height="90" as="geometry" />
        </mxCell>
        <mxCell id="9bhCN26Gut4c0zC6BwJP-172" value="&lt;b&gt;matricola&lt;/b&gt;&lt;br&gt;email&lt;br&gt;password&lt;br&gt;nome&amp;nbsp;&lt;br&gt;cognome&amp;nbsp;" style="text;html=1;align=center;verticalAlign=middle;resizable=0;points=[];autosize=1;strokeColor=none;fillColor=none;" vertex="1" parent="1">
          <mxGeometry x="1235" y="110" width="80" height="90" as="geometry" />
        </mxCell>
        <mxCell id="9bhCN26Gut4c0zC6BwJP-175" value="voti" style="text;html=1;align=center;verticalAlign=middle;resizable=0;points=[];autosize=1;strokeColor=none;fillColor=none;" vertex="1" parent="1">
          <mxGeometry x="880" y="380" width="40" height="30" as="geometry" />
        </mxCell>
        <mxCell id="9bhCN26Gut4c0zC6BwJP-177" value="&lt;b&gt;id&lt;/b&gt;&lt;br&gt;nome_insengnamento&lt;br&gt;cfu" style="text;html=1;align=center;verticalAlign=middle;resizable=0;points=[];autosize=1;strokeColor=none;fillColor=none;" vertex="1" parent="1">
          <mxGeometry x="762" y="380" width="140" height="60" as="geometry" />
        </mxCell>
        <mxCell id="9bhCN26Gut4c0zC6BwJP-179" value="&lt;b&gt;id&lt;/b&gt;&lt;br&gt;data" style="text;html=1;align=center;verticalAlign=middle;resizable=0;points=[];autosize=1;strokeColor=none;fillColor=none;" vertex="1" parent="1">
          <mxGeometry x="915" y="635" width="50" height="40" as="geometry" />
        </mxCell>
        <mxCell id="9bhCN26Gut4c0zC6BwJP-181" value="&lt;b&gt;Id&lt;/b&gt;&lt;br&gt;nome&lt;br&gt;anno" style="text;html=1;align=center;verticalAlign=middle;resizable=0;points=[];autosize=1;strokeColor=none;fillColor=none;" vertex="1" parent="1">
          <mxGeometry x="795" y="700" width="50" height="60" as="geometry" />
        </mxCell>
        <mxCell id="9bhCN26Gut4c0zC6BwJP-183" value="&lt;b&gt;id&lt;/b&gt;&lt;br&gt;voto&lt;br&gt;data" style="text;html=1;align=center;verticalAlign=middle;resizable=0;points=[];autosize=1;strokeColor=none;fillColor=none;" vertex="1" parent="1">
          <mxGeometry x="1505" y="135" width="50" height="60" as="geometry" />
        </mxCell>
      </root>
    </mxGraphModel>
  </diagram>
</mxfile>
